<svg width="76" height="76" viewBox="0 0 76 76" fill="none" xmlns="http://www.w3.org/2000/svg">
<path d="M7.79538 37.727C7.79391 43.0186 9.18596 48.1855 11.8329 52.7396L7.54224 68.2997L23.5745 64.1244C28.0088 66.5221 32.9771 67.7785 38.0259 67.7788H38.0392C54.7062 67.7788 68.2736 54.308 68.2808 37.7507C68.284 29.7275 65.141 22.183 59.4307 16.507C53.7214 10.8314 46.1283 7.7041 38.038 7.70044C21.3689 7.70044 7.80251 21.1705 7.79563 37.727" fill="url(#paint0_linear_1021_150)"/>
<g filter="url(#filter0_d_1021_150)">
<path d="M6.71561 37.7174C6.71389 43.1994 8.15584 48.551 10.8972 53.2682L6.45264 69.3861L23.0597 65.0612C27.6355 67.5392 32.7874 68.8456 38.0297 68.8476H38.0433C55.3083 68.8476 69.363 54.8923 69.3704 37.7423C69.3734 29.4308 66.1174 21.6151 60.2031 15.7357C54.2881 9.85702 46.4234 6.61719 38.0433 6.61377C20.7753 6.61377 6.72274 20.5671 6.71586 37.7174H6.71561ZM16.6055 52.4558L15.9854 51.4781C13.3788 47.3615 12.0029 42.6042 12.0049 37.7193C12.0105 23.4645 23.6906 11.867 38.0531 11.867C45.0085 11.87 51.545 14.563 56.4615 19.4491C61.3777 24.3357 64.0829 30.8315 64.0812 37.7403C64.0748 51.9952 52.3944 63.5941 38.0433 63.5941H38.0329C33.3601 63.5916 28.7771 62.3452 24.7804 59.9898L23.8293 59.4296L13.9743 61.9959L16.6055 52.4556V52.4558Z" fill="url(#paint1_linear_1021_150)"/>
</g>
<path d="M30.2134 24.714C29.627 23.4195 29.0098 23.3933 28.4522 23.3706C27.9955 23.3511 27.4735 23.3526 26.952 23.3526C26.43 23.3526 25.5818 23.5476 24.8649 24.3251C24.1472 25.1033 22.125 26.984 22.125 30.8089C22.125 34.6341 24.93 38.3307 25.321 38.8499C25.7125 39.3682 30.7361 47.4687 38.6923 50.5851C45.3045 53.1748 46.6502 52.6598 48.0852 52.5299C49.5205 52.4005 52.7166 50.6497 53.3686 48.8343C54.0211 47.0191 54.0211 45.4631 53.8255 45.138C53.6298 44.814 53.1078 44.6195 52.325 44.2309C51.542 43.842 47.6937 41.9611 46.9763 41.7016C46.2586 41.4424 45.7369 41.313 45.2148 42.0915C44.6928 42.8687 43.1939 44.6195 42.737 45.138C42.2806 45.6577 41.8237 45.7224 41.0411 45.3335C40.2579 44.9434 37.737 44.1235 34.7462 41.4751C32.4192 39.4143 30.8482 36.8695 30.3916 36.091C29.9349 35.3137 30.3427 34.8924 30.7352 34.505C31.0869 34.1567 31.5182 33.5972 31.9099 33.1434C32.3002 32.6893 32.4305 32.3654 32.6915 31.8469C32.9528 31.3279 32.822 30.8739 32.6266 30.485C32.4305 30.0961 30.9094 26.2514 30.2134 24.7142" fill="white"/>
<defs>
<filter id="filter0_d_1021_150" x="0.452637" y="0.61377" width="74.9177" height="74.7722" filterUnits="userSpaceOnUse" color-interpolation-filters="sRGB">
<feFlood flood-opacity="0" result="BackgroundImageFix"/>
<feColorMatrix in="SourceAlpha" type="matrix" values="0 0 0 0 0 0 0 0 0 0 0 0 0 0 0 0 0 0 127 0" result="hardAlpha"/>
<feOffset/>
<feGaussianBlur stdDeviation="3"/>
<feComposite in2="hardAlpha" operator="out"/>
<feColorMatrix type="matrix" values="0 0 0 0 0.270588 0 0 0 0 0.776471 0 0 0 0 0.333333 0 0 0 0.51 0"/>
<feBlend mode="normal" in2="BackgroundImageFix" result="effect1_dropShadow_1021_150"/>
<feBlend mode="normal" in="SourceGraphic" in2="effect1_dropShadow_1021_150" result="shape"/>
</filter>
<linearGradient id="paint0_linear_1021_150" x1="37.9115" y1="68.2997" x2="37.9115" y2="7.70044" gradientUnits="userSpaceOnUse">
<stop stop-color="#1FAF38"/>
<stop offset="1" stop-color="#60D669"/>
</linearGradient>
<linearGradient id="paint1_linear_1021_150" x1="37.9115" y1="69.3861" x2="37.9115" y2="6.61377" gradientUnits="userSpaceOnUse">
<stop stop-color="#F9F9F9"/>
<stop offset="1" stop-color="white"/>
</linearGradient>
</defs>
</svg>
