<svg width="238" height="1200" viewBox="0 0 238 1200" fill="none" xmlns="http://www.w3.org/2000/svg">
<path d="M185.561 0H237.455V564.277V846.416V864.814C237.455 879.086 229.226 892.079 216.324 898.179V898.179C205.781 903.163 199 913.72 198.852 925.38L198.142 981.092V987.485L197.335 1198.86H185.561V0Z" fill="#9E670C" fill-opacity="0.03"/>
<path d="M122.659 1198.86H174.554V634.584V521.819V508.344C174.554 492.705 166.581 478.145 153.405 469.72V469.72C142.661 462.851 136.091 451.039 135.921 438.287L135.24 387.143V380.75V0.00033844H122.659V1198.86Z" fill="#9E670C" fill-opacity="0.03"/>
<path d="M62.9023 0H111.652V358.152V470.917V492.826C111.652 503.307 106.672 513.165 98.236 519.386L89.8187 525.592C78.826 533.698 72.3377 546.543 72.3377 560.201V605.593V611.986L73.9103 1200H62.9023V0Z" fill="#9E670C" fill-opacity="0.03"/>
<path d="M0 1198.86H50.3219V299.031V186.267V165.061C50.3219 150.47 42.1659 137.102 29.1907 130.428V130.428C18.5896 124.974 11.8681 114.111 11.7193 102.191L11.0079 45.1993V38.806V0.00033844H0V1198.86Z" fill="#9E670C" fill-opacity="0.03"/>
</svg>
